<?xml version="1.0" encoding="UTF-8" standalone="no"?>
<svg
   xmlns:dc="http://purl.org/dc/elements/1.1/"
   xmlns:cc="http://creativecommons.org/ns#"
   xmlns:rdf="http://www.w3.org/1999/02/22-rdf-syntax-ns#"
   xmlns:svg="http://www.w3.org/2000/svg"
   xmlns="http://www.w3.org/2000/svg"
   viewBox="0 0 554 128"
   height="128"
   width="554"
   id="svg869"
   version="1.1">
  <metadata
     id="metadata875">
    <rdf:RDF>
      <cc:Work
         rdf:about="">
        <dc:format>image/svg+xml</dc:format>
        <dc:type
           rdf:resource="http://purl.org/dc/dcmitype/StillImage" />
        <dc:title></dc:title>
      </cc:Work>
    </rdf:RDF>
  </metadata>
  <defs
     id="defs873" />
  <g
     transform="matrix(0.99725255,0,0,0.96829225,2.029304,2.5366342)"
     id="g879">
    <path
       id="path893"
       d="M 0,64 V 0 h 40.980948 40.980948 l 0.554924,2.25 c 0.305209,1.2375 0.426282,9.45 0.269052,18.25 L 82.5,36.5 60,37 l -22.5,0.5 -0.525796,45 c -0.289187,24.75 -0.626687,45.1125 -0.75,45.25 C 36.100892,127.8875 27.9,128 18,128 H 0 Z m 45.490748,61.75 c -0.301046,-1.2375 -0.42212,-19.8 -0.269052,-41.25 L 45.5,45.5 H 64 82.5 l 0.278304,39 c 0.153068,21.45 0.03199,40.0125 -0.269052,41.25 C 81.966881,127.97951 81.798305,128 64,128 46.201695,128 46.033119,127.9795 45.490748,125.75 Z m 46.116241,0.66821 c -0.793032,-2.0666 -0.793032,-122.7698155 0,-124.8364225 C 92.129001,0.22144524 94.703964,0 110,0 c 15.29604,0 17.871,0.22144524 18.39301,1.5817875 0.79303,2.066607 0.79303,122.7698225 0,124.8364225 C 127.871,127.77855 125.29604,128 110,128 94.703964,128 92.129001,127.77855 91.606989,126.41821 Z m 262.348791,-8.97149 c -1.6222,-1.95463 -1.67085,-6.88018 -0.0868,-8.78883 0.66126,-0.79677 2.85821,-1.75933 4.88211,-2.13901 5.67088,-1.06387 8.82596,-3.10777 10.61409,-6.875958 C 370.75259,96.719124 371,92.120139 371,69.253858 c 0,-24.832804 0.14328,-27.073553 1.82874,-28.59887 2.24278,-2.029689 6.13171,-2.135191 8.73013,-0.236839 1.82572,1.333834 1.95875,3.03333 2.23749,28.584617 0.33126,30.365361 -0.25839,34.516964 -5.86319,41.281664 C 373.67961,115.41825 366.37378,119 360.15569,119 c -3.22008,0 -5.35462,-0.53478 -6.19991,-1.55328 z M 158.22251,94.443296 C 156.02546,92.904426 156,92.596887 156,67.598284 c 0,-23.848716 0.11161,-25.389313 1.96055,-27.062585 1.45654,-1.31815 2.8062,-1.599953 5.25,-1.096179 3.82588,0.788679 5.40181,0.784225 12.59739,-0.0356 6.94027,-0.790739 11.13474,0.06796 15.80152,3.234924 2.99933,2.035403 4.13847,2.344574 5.35058,1.452184 9.77175,-7.194268 22.58265,-6.69295 30.91207,1.209655 6.35837,6.032556 7.08134,9.023005 7.10593,29.392615 0.0213,17.678969 -0.0409,18.237304 -2.20055,19.75 -3.06443,2.146413 -6.11299,1.947884 -8.3725,-0.545236 C 222.7308,92.050777 222.43942,89.677405 222,74.308323 l -0.5,-17.487797 -2.80576,-2.410263 c -3.00858,-2.584486 -8.3315,-3.209946 -11.74963,-1.380619 C 202.80856,55.243189 202,58.991276 202,75.95034 202,90.666667 201.83385,92.166151 200,94 c -1.1,1.1 -3.125,2 -4.5,2 -1.375,0 -3.4,-0.9 -4.5,-2 -1.83402,-1.834015 -2,-3.333333 -2,-18.065741 0,-9.862441 -0.43131,-16.909127 -1.11704,-18.25 -3.05365,-5.971109 -10.59291,-7.5557 -15.5772,-3.273996 L 169.5,56.820526 169,74.308323 c -0.43942,15.369082 -0.7308,17.742454 -2.40499,19.589737 -2.25951,2.49312 -5.30807,2.691649 -8.3725,0.545236 z m 103.77102,0.681787 c -7.49428,-2.457332 -15.67457,-9.848324 -18.74403,-16.93547 -2.36747,-5.466312 -2.14041,-16.566079 0.45697,-22.338779 2.52393,-5.609451 8.42679,-11.726606 13.82669,-14.328662 5.03783,-2.427582 15.19339,-3.138637 21.12156,-1.478852 6.802,1.90444 13.62272,7.784328 16.9939,14.649799 2.68485,5.467735 2.87095,6.683346 3.18653,20.813778 0.31553,14.128859 0.20889,15.167392 -1.82258,17.75 -2.613,3.32189 -6.19186,3.563808 -9.13798,0.617694 -2.07758,-2.077576 -2.20698,-2.085728 -5.75,-0.362204 -4.00443,1.94798 -16.1429,2.920391 -20.13106,1.612696 z m 16.83096,-14.787421 c 1.47153,-1.067884 3.72969,-4.04314 5.01813,-6.61168 7.93759,-15.823783 -13.49817,-29.770373 -25.46945,-16.570996 -6.74061,7.432114 -4.31994,19.564061 4.83536,24.233929 4.18514,2.134719 11.94564,1.612289 15.61596,-1.051253 z M 306,94 c -1.89267,-1.892668 -2,-3.333333 -2,-26.845012 0,-22.799453 0.15057,-24.981273 1.82874,-26.5 2.27184,-2.055984 6.05283,-2.126665 8.8528,-0.165493 1.8836,1.319328 2.60886,1.319328 6.34823,0 5.09685,-1.798272 12.799,-1.920687 18.24198,-0.289931 5.65985,1.695731 14.16796,9.777869 16.41006,15.58846 1.47926,3.833618 1.81819,7.627739 1.81819,20.353658 0,13.977146 -0.20272,15.866043 -1.90499,17.75 -2.23309,2.471444 -5.30037,2.703423 -8.26736,0.625263 -1.97637,-1.384309 -2.141,-2.535847 -2.4725,-17.294729 C 344.55971,64.068894 344.19664,60.947689 342.69567,58.65753 338.53072,52.302747 329.57369,50.133339 323.29855,53.959516 317.81021,57.305951 317,60.181702 317,76.315481 c 0,13.068871 -0.19352,14.660822 -2.07258,17.04966 C 312.43671,96.53157 308.79084,96.79084 306,94 Z m 101.27458,0.406393 c -6.13951,-2.261837 -13.58926,-9.38583 -16.22701,-15.517452 -6.277,-14.59128 0.13332,-30.962067 14.74285,-37.650529 4.69635,-2.150063 6.46404,-2.422763 13.18337,-2.033787 11.51412,0.666542 18.54819,5.347406 24.31252,16.178905 1.94045,3.646222 2.23025,5.963138 2.5368,20.281866 0.32747,15.295427 0.23391,16.277583 -1.73851,18.25 -2.67679,2.676799 -6.50939,2.659819 -9.21001,-0.04081 -2.07758,-2.077576 -2.20698,-2.085728 -5.75,-0.362204 -4.97587,2.420543 -16.43386,2.889353 -21.85001,0.894006 z m 16.05423,-12.770419 c 10.41833,-4.353057 12.57771,-17.488052 4.20857,-25.599744 -3.01792,-2.925083 -4.33004,-3.459303 -9.27626,-3.776757 -4.51943,-0.290064 -6.46356,0.07122 -9.02026,1.676245 -4.77783,2.999397 -7.2327,7.635111 -7.23712,13.666399 -0.008,11.273311 10.84217,18.413893 21.32507,14.033857 z M 453,94 c -1.89267,-1.892668 -2,-3.333333 -2,-26.845012 0,-22.799453 0.15057,-24.981273 1.82874,-26.5 2.46819,-2.233679 6.73801,-2.088241 9.13749,0.31124 1.95027,1.950269 2.001,1.950447 6.25,0.02196 5.188,-2.354666 16.2563,-2.653246 21.2354,-0.572848 5.15973,2.155873 6.87987,6.382497 4.12818,10.143528 -1.23011,1.681322 -2.66893,1.94113 -10.75,1.94113 -8.04967,0 -9.75883,0.30602 -12.45652,2.230306 C 465.01626,58.551511 464,62.145008 464,77.26627 464,89.373253 463.79111,90.995848 461.92742,93.365141 459.43671,96.53157 455.79084,96.79084 453,94 Z m 64.70268,0.557676 C 502.32855,89.073592 494.39074,72.948862 499.5751,57.733609 c 2.10237,-6.170117 8.27313,-12.980762 14.63238,-16.149711 4.1119,-2.049048 6.64527,-2.581876 12.23886,-2.574129 20.06886,0.02779 31.31727,16.325821 26.33962,38.163941 -1.57561,6.91252 -8.89903,14.65461 -16.22259,17.149997 -5.87417,2.00153 -13.63558,2.097811 -18.86069,0.233969 z M 534.3959,80.73355 c 10.00167,-5.734035 10.20549,-20.738057 0.36324,-26.738952 -7.03717,-4.290612 -17.36175,-1.595937 -21.49269,5.609503 -7.88261,13.749344 7.38011,29.012055 21.12945,21.129449 z M 374.31537,36.99302 c -4.68971,-1.889529 -5.63685,-7.762451 -1.86082,-11.538475 4.28186,-4.281861 10.67048,-2.292012 12.1049,3.770287 0.51681,2.184207 0.0445,3.325045 -2.38044,5.75 -3.17445,3.174452 -4.28588,3.4597 -7.86364,2.018188 z"
       style="fill:#cfcfcf" />
    <path
       id="path891"
       d="M 0,64 V 0 h 40.893011 c 36.366587,0 40.960199,0.17508715 41.5,1.5817875 C 82.726855,2.4517706 83,10.503626 83,19.474799 83,33.426011 82.771137,35.873845 81.418213,36.393011 80.548229,36.726855 70.198229,37 58.418213,37 H 37 v 43.918213 c 0,24.155017 -0.273145,44.630017 -0.606989,45.499997 -0.5222,1.36084 -3.106404,1.58179 -18.5,1.58179 L 0,128 Z m 45.606989,62.41821 C 45.273145,125.54823 45,107.41323 45,86.118213 45,57.337381 45.307991,47.092009 46.2,46.2 47.465654,44.934346 78.311814,44.414952 81.418213,45.606989 82.823477,46.146239 83,50.600997 83,85.525201 83,107.14637 82.726855,125.54823 82.393011,126.41821 81.870999,127.77855 79.296036,128 64,128 48.703964,128 46.129001,127.77855 45.606989,126.41821 Z m 46,0 c -0.793032,-2.0666 -0.793032,-122.7698155 0,-124.8364225 C 92.129001,0.22144524 94.703964,0 110,0 c 15.29604,0 17.871,0.22144524 18.39301,1.5817875 0.79303,2.066607 0.79303,122.7698225 0,124.8364225 C 127.871,127.77855 125.29604,128 110,128 94.703964,128 92.129001,127.77855 91.606989,126.41821 Z M 354.40804,115.5 c -1.5069,-2.29983 -1.50936,-2.69643 -0.0306,-4.95327 0.95515,-1.45774 2.98294,-2.71131 4.99706,-3.08916 1.86429,-0.34974 4.81978,-1.50563 6.56775,-2.56863 C 371.57028,101.46632 372,98.96328 372,69.603547 c 0,-22.721839 0.22204,-26.68273 1.57143,-28.032118 2.34827,-2.348272 6.13594,-1.947665 7.96401,0.842322 1.36633,2.085279 1.53957,6.201813 1.27306,30.25 -0.29166,26.316617 -0.42655,28.054619 -2.47087,31.836249 -4.44243,8.21771 -12.37857,13.5 -20.28246,13.5 -3.17285,0 -4.35073,-0.52145 -5.64713,-2.5 z M 158.57143,93.428571 C 157.22759,92.084729 157,88.275758 157,67.128571 c 0,-17.9 0.33137,-25.05994 1.2,-25.928571 1.52293,-1.522926 6.04429,-1.555715 7.54528,-0.05472 0.86038,0.860375 2.27414,0.829222 5.68311,-0.125231 6.74758,-1.889206 14.6204,-0.915306 19.68282,2.434848 4.08232,2.701548 4.32256,2.740994 6.81019,1.118167 5.7336,-3.740356 9.45656,-4.78199 15.6761,-4.385959 7.41704,0.472281 12.98761,3.719755 17.14396,9.994409 2.72871,4.119408 2.76188,4.36577 3.06705,22.783523 0.29188,17.615138 0.19969,18.717568 -1.70971,20.445545 -2.67843,2.423953 -6.8406,1.398727 -8.13417,-2.003612 C 223.43408,90.011527 223,82.170269 223,73.981953 223,57.708668 222.2858,54.716274 217.85497,52.425004 213.29461,50.06675 208.46021,50.6173 204.76578,53.915625 L 201.5,56.831249 201,74.266585 C 200.46874,92.792034 199.88649,95 195.53254,95 190.76796,95 190.16161,92.788712 189.8189,74.163038 L 189.5,56.831284 186.23422,53.915642 C 183.93274,51.86091 181.92499,51 179.43456,51 c -4.16904,0 -8.85114,2.199773 -10.03139,4.713015 -0.46156,0.982842 -1.07859,9.586662 -1.37119,19.1196 -0.48046,15.654131 -0.71996,17.469873 -2.47311,18.75 -2.5357,1.851534 -5.03701,1.796391 -6.98744,-0.154044 z m 101.81392,-0.04573 c -5.72156,-2.029164 -11.42801,-7.207891 -14.83009,-13.458634 -2.39737,-4.404759 -2.88318,-6.479519 -2.89385,-12.358802 -0.0151,-8.328623 1.60218,-12.634039 6.99142,-18.611884 10.98702,-12.187018 29.69232,-12.050255 41.03023,0.299992 C 296.56677,55.662564 298,61.231009 298,77.681501 298,89.666667 297.79978,91.200223 296,93 c -2.56224,2.562236 -4.80432,2.532459 -7.60755,-0.101034 l -2.23644,-2.101033 -5.61552,2.101033 c -6.49197,2.428956 -14.15211,2.612856 -20.15514,0.483871 z M 276.29774,82.64896 c 4.94832,-2.067538 9.45506,-7.817712 10.24245,-13.068375 1.28337,-8.558149 -5.08104,-17.172796 -13.52368,-18.305192 -6.20847,-0.832731 -10.72075,0.495521 -14.49079,4.26556 -12.70024,12.700241 1.26674,34.004352 17.77202,27.108007 z m 30.35725,10.522303 C 305.21137,91.576084 305,88.26451 305,67.242688 c 0,-20.575604 0.2298,-24.329628 1.57143,-25.671259 2.04803,-2.048029 5.29809,-1.999486 7.63348,0.114014 1.74659,1.580643 2.15566,1.580336 6.57874,-0.0049 13.55467,-4.858137 28.05152,1.174483 33.89956,14.10673 1.34056,2.964504 1.69283,7.003332 1.74786,20.039922 0.0635,15.051222 -0.0828,16.438342 -1.8722,17.75 -2.53322,1.856851 -5.03521,1.80365 -6.98744,-0.148578 -1.26049,-1.260488 -1.57615,-4.080153 -1.59529,-14.25 -0.0296,-15.756022 -0.87082,-19.539921 -5.33657,-24.00567 -2.94266,-2.942662 -4.3394,-3.558879 -8.81803,-3.890364 -6.25546,-0.462998 -10.65071,1.748888 -13.82694,6.958323 -1.74517,2.862299 -1.98758,5.055135 -1.99086,18.00914 -0.003,13.413836 -0.18491,14.931175 -2.00374,16.75 -2.49115,2.491152 -5.18862,2.554047 -7.34501,0.171259 z m 100.95107,0.260794 C 397.06515,89.569096 389.875,79.131517 389.875,67.692777 c 0,-16.731733 12.34357,-28.513364 28.82251,-27.510365 7.92563,0.482397 12.65767,2.51182 17.80014,7.633915 7.0578,7.029846 7.92571,9.841326 8.32601,26.971143 0.29915,12.800771 0.0948,15.688031 -1.25625,17.75 -1.97784,3.018562 -5.1952,3.160833 -8.17496,0.361496 l -2.23644,-2.101033 -5.61552,2.101033 c -6.46396,2.418479 -14.22351,2.625985 -19.93443,0.533087 z m 17.43392,-11.734792 c 4.91852,-2.600976 8.9743,-9.001127 8.93806,-14.104545 -0.0328,-4.612741 -3.31684,-10.985714 -7.01988,-13.622507 -2.08707,-1.486123 -5.17868,-2.489807 -8.52374,-2.767205 C 408.59466,50.387015 401,57.458234 401,67.435814 c 0,12.939564 12.50792,20.359746 24.03998,14.261447 z m 28.61501,11.473998 C 452.21137,91.576084 452,88.26451 452,67.242688 c 0,-20.575604 0.2298,-24.329628 1.57143,-25.671259 2.1415,-2.141504 5.37122,-1.973932 7.90919,0.410364 2.10306,1.975724 2.12549,1.975724 7.32518,0 9.59455,-3.645641 23.12846,-1.914996 24.74037,3.163668 0.34805,1.096604 -0.0854,3.02857 -0.98883,4.40737 -1.55299,2.370164 -1.89241,2.433922 -9.83293,1.847053 -7.54319,-0.557504 -8.50669,-0.412874 -11.63246,1.746132 -7.0302,4.855846 -7.5384,6.332184 -8.09195,23.507287 -0.44708,13.87179 -0.70544,15.663646 -2.44113,16.930213 -2.62798,1.917691 -4.91912,1.780878 -6.90388,-0.412257 z m 65.33854,0.954276 c -7.13465,-2.340696 -14.1342,-8.375541 -17.53418,-15.117561 -0.96856,-1.920615 -1.97878,-6.535437 -2.24492,-10.255161 -0.43645,-6.099978 -0.17311,-7.394454 2.68574,-13.201589 5.2321,-10.627909 13.01484,-15.426033 25.15349,-15.507331 18.61654,-0.124684 31.15116,17.666704 25.55269,36.268995 -3.15456,10.4818 -12.84896,17.723025 -24.50677,18.305317 -3.62977,0.181302 -7.72749,-0.0404 -9.10605,-0.49267 z M 536.53397,80.541888 C 548.9487,71.072709 542.33647,51 526.80246,51 c -9.28753,0 -15.86223,6.098693 -16.51804,15.322136 -1.00093,14.077238 15.04219,22.768021 26.24955,14.219752 z M 373.65713,34.944937 C 370.4685,32.436758 370.20123,28.798765 373,26 c 2.79877,-2.798765 6.43676,-2.531505 8.94494,0.657128 4.58638,5.830636 -2.45718,12.874188 -8.28781,8.287809 z"
       style="fill:#b7e7c4" />
    <path
       id="path889"
       d="M 0,64 V 0 H 41.023074 82.046149 L 81.773074,17.75 81.5,35.5 59,36 36.5,36.5 36.239912,82.25 35.979825,128 H 17.989912 0 Z M 46.238783,87.25 46.5,46.5 H 64 81.5 L 81.761217,87.25 82.022435,128 H 64 45.977565 Z M 92,64 V 0 h 18 18 v 64 64 H 110 92 Z m 262.40804,51.5 c -1.5069,-2.29983 -1.50936,-2.69643 -0.0306,-4.95327 0.95515,-1.45774 2.98294,-2.71131 4.99706,-3.08916 1.86429,-0.34974 4.81978,-1.50563 6.56775,-2.56863 C 371.57028,101.46632 372,98.96328 372,69.603547 c 0,-22.721839 0.22204,-26.68273 1.57143,-28.032118 2.34827,-2.348272 6.13594,-1.947665 7.96401,0.842322 1.36633,2.085279 1.53957,6.201813 1.27306,30.25 -0.29166,26.316617 -0.42655,28.054619 -2.47087,31.836249 -4.44243,8.21771 -12.37857,13.5 -20.28246,13.5 -3.17285,0 -4.35073,-0.52145 -5.64713,-2.5 z M 158.57143,93.428571 C 157.22759,92.084729 157,88.275758 157,67.128571 c 0,-17.9 0.33137,-25.05994 1.2,-25.928571 1.52293,-1.522926 6.04429,-1.555715 7.54528,-0.05472 0.86038,0.860375 2.27414,0.829222 5.68311,-0.125231 6.74758,-1.889206 14.6204,-0.915306 19.68282,2.434848 4.08232,2.701548 4.32256,2.740994 6.81019,1.118167 5.7336,-3.740356 9.45656,-4.78199 15.6761,-4.385959 7.41704,0.472281 12.98761,3.719755 17.14396,9.994409 2.72871,4.119408 2.76188,4.36577 3.06705,22.783523 0.29188,17.615138 0.19969,18.717568 -1.70971,20.445545 -2.67843,2.423953 -6.8406,1.398727 -8.13417,-2.003612 C 223.43408,90.011527 223,82.170269 223,73.981953 223,57.708668 222.2858,54.716274 217.85497,52.425004 213.29461,50.06675 208.46021,50.6173 204.76578,53.915625 L 201.5,56.831249 201,74.266585 C 200.46874,92.792034 199.88649,95 195.53254,95 190.76796,95 190.16161,92.788712 189.8189,74.163038 L 189.5,56.831284 186.23422,53.915642 C 183.93274,51.86091 181.92499,51 179.43456,51 c -4.16904,0 -8.85114,2.199773 -10.03139,4.713015 -0.46156,0.982842 -1.07859,9.586662 -1.37119,19.1196 -0.48046,15.654131 -0.71996,17.469873 -2.47311,18.75 -2.5357,1.851534 -5.03701,1.796391 -6.98744,-0.154044 z m 101.81392,-0.04573 c -5.72156,-2.029164 -11.42801,-7.207891 -14.83009,-13.458634 -2.39737,-4.404759 -2.88318,-6.479519 -2.89385,-12.358802 -0.0151,-8.328623 1.60218,-12.634039 6.99142,-18.611884 10.98702,-12.187018 29.69232,-12.050255 41.03023,0.299992 C 296.56677,55.662564 298,61.231009 298,77.681501 298,89.666667 297.79978,91.200223 296,93 c -2.56224,2.562236 -4.80432,2.532459 -7.60755,-0.101034 l -2.23644,-2.101033 -5.61552,2.101033 c -6.49197,2.428956 -14.15211,2.612856 -20.15514,0.483871 z M 276.29774,82.64896 c 4.94832,-2.067538 9.45506,-7.817712 10.24245,-13.068375 1.28337,-8.558149 -5.08104,-17.172796 -13.52368,-18.305192 -6.20847,-0.832731 -10.72075,0.495521 -14.49079,4.26556 -12.70024,12.700241 1.26674,34.004352 17.77202,27.108007 z m 30.35725,10.522303 C 305.21137,91.576084 305,88.26451 305,67.242688 c 0,-20.575604 0.2298,-24.329628 1.57143,-25.671259 2.04803,-2.048029 5.29809,-1.999486 7.63348,0.114014 1.74659,1.580643 2.15566,1.580336 6.57874,-0.0049 13.55467,-4.858137 28.05152,1.174483 33.89956,14.10673 1.34056,2.964504 1.69283,7.003332 1.74786,20.039922 0.0635,15.051222 -0.0828,16.438342 -1.8722,17.75 -2.53322,1.856851 -5.03521,1.80365 -6.98744,-0.148578 -1.26049,-1.260488 -1.57615,-4.080153 -1.59529,-14.25 -0.0296,-15.756022 -0.87082,-19.539921 -5.33657,-24.00567 -2.94266,-2.942662 -4.3394,-3.558879 -8.81803,-3.890364 -6.25546,-0.462998 -10.65071,1.748888 -13.82694,6.958323 -1.74517,2.862299 -1.98758,5.055135 -1.99086,18.00914 -0.003,13.413836 -0.18491,14.931175 -2.00374,16.75 -2.49115,2.491152 -5.18862,2.554047 -7.34501,0.171259 z m 100.95107,0.260794 C 397.06515,89.569096 389.875,79.131517 389.875,67.692777 c 0,-16.731733 12.34357,-28.513364 28.82251,-27.510365 7.92563,0.482397 12.65767,2.51182 17.80014,7.633915 7.0578,7.029846 7.92571,9.841326 8.32601,26.971143 0.29915,12.800771 0.0948,15.688031 -1.25625,17.75 -1.97784,3.018562 -5.1952,3.160833 -8.17496,0.361496 l -2.23644,-2.101033 -5.61552,2.101033 c -6.46396,2.418479 -14.22351,2.625985 -19.93443,0.533087 z m 17.43392,-11.734792 c 4.91852,-2.600976 8.9743,-9.001127 8.93806,-14.104545 -0.0328,-4.612741 -3.31684,-10.985714 -7.01988,-13.622507 -2.08707,-1.486123 -5.17868,-2.489807 -8.52374,-2.767205 C 408.59466,50.387015 401,57.458234 401,67.435814 c 0,12.939564 12.50792,20.359746 24.03998,14.261447 z m 28.61501,11.473998 C 452.21137,91.576084 452,88.26451 452,67.242688 c 0,-20.575604 0.2298,-24.329628 1.57143,-25.671259 2.1415,-2.141504 5.37122,-1.973932 7.90919,0.410364 2.10306,1.975724 2.12549,1.975724 7.32518,0 9.59455,-3.645641 23.12846,-1.914996 24.74037,3.163668 0.34805,1.096604 -0.0854,3.02857 -0.98883,4.40737 -1.55299,2.370164 -1.89241,2.433922 -9.83293,1.847053 -7.54319,-0.557504 -8.50669,-0.412874 -11.63246,1.746132 -7.0302,4.855846 -7.5384,6.332184 -8.09195,23.507287 -0.44708,13.87179 -0.70544,15.663646 -2.44113,16.930213 -2.62798,1.917691 -4.91912,1.780878 -6.90388,-0.412257 z m 65.33854,0.954276 c -7.13465,-2.340696 -14.1342,-8.375541 -17.53418,-15.117561 -0.96856,-1.920615 -1.97878,-6.535437 -2.24492,-10.255161 -0.43645,-6.099978 -0.17311,-7.394454 2.68574,-13.201589 5.2321,-10.627909 13.01484,-15.426033 25.15349,-15.507331 18.61654,-0.124684 31.15116,17.666704 25.55269,36.268995 -3.15456,10.4818 -12.84896,17.723025 -24.50677,18.305317 -3.62977,0.181302 -7.72749,-0.0404 -9.10605,-0.49267 z M 536.53397,80.541888 C 548.9487,71.072709 542.33647,51 526.80246,51 c -9.28753,0 -15.86223,6.098693 -16.51804,15.322136 -1.00093,14.077238 15.04219,22.768021 26.24955,14.219752 z M 373.65713,34.944937 C 370.4685,32.436758 370.20123,28.798765 373,26 c 2.79877,-2.798765 6.43676,-2.531505 8.94494,0.657128 4.58638,5.830636 -2.45718,12.874188 -8.28781,8.287809 z"
       style="fill:#79d392" />
    <path
       id="path887"
       d="M 0,64 V 0 h 41.106989 c 37.073355,0 41.047428,0.15521331 40.5,1.5817875 C 81.273145,2.4517706 81,10.318322 81,19.063013 V 34.962451 L 58.25,35.231226 35.5,35.5 V 81.750251 128.0005 L 17.75,128.00025 0,128 Z m 46.393011,62.41821 C 46.726855,125.54823 47,107.32323 47,85.918213 V 47 h 17 17 v 38.918213 c 0,21.405017 0.273145,39.630017 0.606989,40.499997 C 82.146792,127.82492 80.197923,128 64,128 47.802077,128 45.853208,127.82492 46.393011,126.41821 Z M 92.5,64 V 0 h 17.5 17.5 v 64 64 H 110 92.5 Z m 261.90804,51.5 c -1.5069,-2.29983 -1.50936,-2.69643 -0.0306,-4.95327 0.95515,-1.45774 2.98294,-2.71131 4.99706,-3.08916 1.86429,-0.34974 4.81978,-1.50563 6.56775,-2.56863 C 371.57028,101.46632 372,98.96328 372,69.603547 c 0,-22.721839 0.22204,-26.68273 1.57143,-28.032118 2.34827,-2.348272 6.13594,-1.947665 7.96401,0.842322 1.36633,2.085279 1.53957,6.201813 1.27306,30.25 -0.29166,26.316617 -0.42655,28.054619 -2.47087,31.836249 -4.44243,8.21771 -12.37857,13.5 -20.28246,13.5 -3.17285,0 -4.35073,-0.52145 -5.64713,-2.5 z M 158.57143,93.428571 C 157.22759,92.084729 157,88.275758 157,67.128571 c 0,-17.9 0.33137,-25.05994 1.2,-25.928571 1.52293,-1.522926 6.04429,-1.555715 7.54528,-0.05472 0.86038,0.860375 2.27414,0.829222 5.68311,-0.125231 6.74758,-1.889206 14.6204,-0.915306 19.68282,2.434848 4.08232,2.701548 4.32256,2.740994 6.81019,1.118167 5.7336,-3.740356 9.45656,-4.78199 15.6761,-4.385959 7.41704,0.472281 12.98761,3.719755 17.14396,9.994409 2.72871,4.119408 2.76188,4.36577 3.06705,22.783523 0.29188,17.615138 0.19969,18.717568 -1.70971,20.445545 -2.67843,2.423953 -6.8406,1.398727 -8.13417,-2.003612 C 223.43408,90.011527 223,82.170269 223,73.981953 223,57.708668 222.2858,54.716274 217.85497,52.425004 213.29461,50.06675 208.46021,50.6173 204.76578,53.915625 L 201.5,56.831249 201,74.266585 C 200.46874,92.792034 199.88649,95 195.53254,95 190.76796,95 190.16161,92.788712 189.8189,74.163038 L 189.5,56.831284 186.23422,53.915642 C 183.93274,51.86091 181.92499,51 179.43456,51 c -4.16904,0 -8.85114,2.199773 -10.03139,4.713015 -0.46156,0.982842 -1.07859,9.586662 -1.37119,19.1196 -0.48046,15.654131 -0.71996,17.469873 -2.47311,18.75 -2.5357,1.851534 -5.03701,1.796391 -6.98744,-0.154044 z m 101.81392,-0.04573 c -5.72156,-2.029164 -11.42801,-7.207891 -14.83009,-13.458634 -2.39737,-4.404759 -2.88318,-6.479519 -2.89385,-12.358802 -0.0151,-8.328623 1.60218,-12.634039 6.99142,-18.611884 10.98702,-12.187018 29.69232,-12.050255 41.03023,0.299992 C 296.56677,55.662564 298,61.231009 298,77.681501 298,89.666667 297.79978,91.200223 296,93 c -2.56224,2.562236 -4.80432,2.532459 -7.60755,-0.101034 l -2.23644,-2.101033 -5.61552,2.101033 c -6.49197,2.428956 -14.15211,2.612856 -20.15514,0.483871 z M 276.29774,82.64896 c 4.94832,-2.067538 9.45506,-7.817712 10.24245,-13.068375 1.28337,-8.558149 -5.08104,-17.172796 -13.52368,-18.305192 -6.20847,-0.832731 -10.72075,0.495521 -14.49079,4.26556 -12.70024,12.700241 1.26674,34.004352 17.77202,27.108007 z m 30.35725,10.522303 C 305.21137,91.576084 305,88.26451 305,67.242688 c 0,-20.575604 0.2298,-24.329628 1.57143,-25.671259 2.04803,-2.048029 5.29809,-1.999486 7.63348,0.114014 1.74659,1.580643 2.15566,1.580336 6.57874,-0.0049 13.55467,-4.858137 28.05152,1.174483 33.89956,14.10673 1.34056,2.964504 1.69283,7.003332 1.74786,20.039922 0.0635,15.051222 -0.0828,16.438342 -1.8722,17.75 -2.53322,1.856851 -5.03521,1.80365 -6.98744,-0.148578 -1.26049,-1.260488 -1.57615,-4.080153 -1.59529,-14.25 -0.0296,-15.756022 -0.87082,-19.539921 -5.33657,-24.00567 -2.94266,-2.942662 -4.3394,-3.558879 -8.81803,-3.890364 -6.25546,-0.462998 -10.65071,1.748888 -13.82694,6.958323 -1.74517,2.862299 -1.98758,5.055135 -1.99086,18.00914 -0.003,13.413836 -0.18491,14.931175 -2.00374,16.75 -2.49115,2.491152 -5.18862,2.554047 -7.34501,0.171259 z m 100.95107,0.260794 C 397.06515,89.569096 389.875,79.131517 389.875,67.692777 c 0,-16.731733 12.34357,-28.513364 28.82251,-27.510365 7.92563,0.482397 12.65767,2.51182 17.80014,7.633915 7.0578,7.029846 7.92571,9.841326 8.32601,26.971143 0.29915,12.800771 0.0948,15.688031 -1.25625,17.75 -1.97784,3.018562 -5.1952,3.160833 -8.17496,0.361496 l -2.23644,-2.101033 -5.61552,2.101033 c -6.46396,2.418479 -14.22351,2.625985 -19.93443,0.533087 z m 17.43392,-11.734792 c 4.91852,-2.600976 8.9743,-9.001127 8.93806,-14.104545 -0.0328,-4.612741 -3.31684,-10.985714 -7.01988,-13.622507 -2.08707,-1.486123 -5.17868,-2.489807 -8.52374,-2.767205 C 408.59466,50.387015 401,57.458234 401,67.435814 c 0,12.939564 12.50792,20.359746 24.03998,14.261447 z m 28.61501,11.473998 C 452.21137,91.576084 452,88.26451 452,67.242688 c 0,-20.575604 0.2298,-24.329628 1.57143,-25.671259 2.1415,-2.141504 5.37122,-1.973932 7.90919,0.410364 2.10306,1.975724 2.12549,1.975724 7.32518,0 9.59455,-3.645641 23.12846,-1.914996 24.74037,3.163668 0.34805,1.096604 -0.0854,3.02857 -0.98883,4.40737 -1.55299,2.370164 -1.89241,2.433922 -9.83293,1.847053 -7.54319,-0.557504 -8.50669,-0.412874 -11.63246,1.746132 -7.0302,4.855846 -7.5384,6.332184 -8.09195,23.507287 -0.44708,13.87179 -0.70544,15.663646 -2.44113,16.930213 -2.62798,1.917691 -4.91912,1.780878 -6.90388,-0.412257 z m 65.33854,0.954276 c -7.13465,-2.340696 -14.1342,-8.375541 -17.53418,-15.117561 -0.96856,-1.920615 -1.97878,-6.535437 -2.24492,-10.255161 -0.43645,-6.099978 -0.17311,-7.394454 2.68574,-13.201589 5.2321,-10.627909 13.01484,-15.426033 25.15349,-15.507331 18.61654,-0.124684 31.15116,17.666704 25.55269,36.268995 -3.15456,10.4818 -12.84896,17.723025 -24.50677,18.305317 -3.62977,0.181302 -7.72749,-0.0404 -9.10605,-0.49267 z M 536.53397,80.541888 C 548.9487,71.072709 542.33647,51 526.80246,51 c -9.28753,0 -15.86223,6.098693 -16.51804,15.322136 -1.00093,14.077238 15.04219,22.768021 26.24955,14.219752 z M 373.65713,34.944937 C 370.4685,32.436758 370.20123,28.798765 373,26 c 2.79877,-2.798765 6.43676,-2.531505 8.94494,0.657128 4.58638,5.830636 -2.45718,12.874188 -8.28781,8.287809 z"
       style="fill:#9f9f9f" />
    <path
       id="path885"
       d="M 0,64 V 0 h 41.106989 c 37.073355,0 41.047428,0.15521331 40.5,1.5817875 C 81.273145,2.4517706 81,10.318322 81,19.063013 V 34.962451 L 58.25,35.231226 35.5,35.5 V 81.750251 128.0005 L 17.75,128.00025 0,128 Z m 46.393011,62.41821 C 46.726855,125.54823 47,107.32323 47,85.918213 V 47 h 17 17 v 38.918213 c 0,21.405017 0.273145,39.630017 0.606989,40.499997 C 82.146792,127.82492 80.197923,128 64,128 47.802077,128 45.853208,127.82492 46.393011,126.41821 Z M 92.5,64 V 0 h 17.5 17.5 v 64 64 H 110 92.5 Z m 262.88953,51.57273 c -1.4179,-3.695 0.0512,-5.93595 4.65914,-7.1069 6.08464,-1.5462 9.45246,-3.89476 11.36518,-7.92552 C 372.7399,97.745869 373,92.78676 373,70.298871 373,50.71086 373.32615,43.073851 374.2,42.2 c 1.8601,-1.860102 4.53058,-1.422741 6.2433,1.022506 1.30495,1.863077 1.5567,6.140768 1.5567,26.450779 0,13.461856 -0.47637,26.449513 -1.072,29.226854 -1.51359,7.057601 -5.95024,12.736361 -12.2376,15.663711 -5.85034,2.72387 -12.45065,3.22451 -13.30087,1.00888 z M 159.67278,92.75 c -1.54499,-1.129724 -1.68365,-3.596991 -1.44113,-25.641689 0.23766,-21.602324 0.46103,-24.513152 1.95325,-25.453821 1.23213,-0.776717 2.38705,-0.686349 4.29787,0.33629 2.12957,1.139708 3.43929,1.177415 7.07945,0.203821 8.36358,-2.236916 14.99676,-1.046468 21.15344,3.796378 2.3818,1.873523 2.7735,1.915023 4.69155,0.497064 12.49852,-9.239743 27.63048,-6.09095 33.69693,7.011957 1.57339,3.398376 1.85524,6.597728 1.8739,21.271439 l 0.022,17.271439 -2.47039,1.125583 c -4.85246,2.210931 -5.52898,0.250405 -5.53519,-16.040906 -0.003,-8.045155 -0.46623,-16.286131 -1.02925,-18.313279 C 221.07733,48.416713 206.34052,46.639471 201.44889,56.09884 200.36199,58.200666 200,62.871819 200,74.795353 c 0,14.128508 -0.2032,16.078569 -1.82874,17.549659 -2.28311,2.06619 -3.59759,2.085804 -5.59983,0.08356 C 191.27399,91.131131 191,88.071243 191,74.878912 c 0,-17.706626 -0.75622,-20.667248 -5.96727,-23.361985 -7.30882,-3.779539 -15.88744,-0.30129 -17.9979,7.297349 -0.56302,2.027148 -1.02619,10.233224 -1.02925,18.235724 -0.006,14.330615 -0.5486,16.95 -3.51445,16.95 -0.60988,0 -1.87813,-0.5625 -2.81835,-1.25 z m 103.32075,0.375625 c -7.40447,-2.429484 -14.80461,-9.035893 -17.5907,-15.703943 -2.04543,-4.895398 -1.76373,-16.030078 0.53356,-21.089743 9.11549,-20.076484 38.02955,-20.40838 47.7463,-0.548066 2.55673,5.225768 2.82002,6.843888 3.1665,19.460152 0.31579,11.498805 0.10891,14.17098 -1.2587,16.258213 -2.0845,3.181349 -3.89833,3.156934 -6.91188,-0.09304 l -2.40232,-2.590799 -4.35873,2.223659 c -4.69401,2.394701 -14.6387,3.489627 -18.92403,2.083565 z M 280.51108,81.55935 c 4.14747,-3.163432 7.43378,-9.432516 7.46696,-14.24425 0.10729,-15.559932 -20.04412,-23.537963 -30.68031,-12.146467 -2.80013,2.998972 -5.30414,8.955158 -5.27577,12.549248 0.0273,3.4533 3.06149,10.219261 5.58904,12.462877 6.52486,5.791889 16.33932,6.382723 22.90008,1.378592 z m 27.06035,10.869221 C 306.23116,91.0883 306,87.366667 306,67.128571 306,50.006349 306.3341,43.065904 307.2,42.2 c 1.77873,-1.778729 4.48144,-1.458307 6.5652,0.778343 1.83638,1.971124 1.8621,1.971124 7.04968,0 9.6467,-3.665458 18.41038,-2.172909 25.88779,4.408966 7.38819,6.503352 8.24977,9.44354 8.27537,28.240246 0.0181,13.273299 -0.24875,16.352226 -1.50765,17.397022 -1.16961,0.970685 -2.11105,1.004549 -4,0.143884 -2.45759,-1.119753 -2.4705,-1.19951 -2.49235,-15.397022 -0.0181,-11.725237 -0.35246,-14.999112 -1.87437,-18.350038 C 339.73586,47.602651 324.7249,46.152796 317.51908,56.757105 315.11234,60.29894 315,61.11295 315,75.009628 c 0,11.546219 -0.32098,15.003623 -1.5567,16.767866 -1.83289,2.616814 -3.6992,2.823751 -5.87187,0.651077 z M 408.18261,92.159089 C 394.95697,87.439836 388.1197,73.131018 392.09909,58.5 c 1.5659,-5.757343 10.89048,-14.677192 17.18568,-16.43974 14.7909,-4.141196 30.57985,4.75556 33.62315,18.94597 C 443.50856,63.806947 444,71.631548 444,78.394234 c 0,10.641971 -0.24597,12.518392 -1.82874,13.950778 -2.49773,2.260413 -3.68802,2.088851 -6.49265,-0.935812 l -2.40232,-2.590799 -4.31575,2.201732 c -6.01309,3.067646 -14.12642,3.512384 -20.77793,1.138956 z m 16.74629,-8.910643 c 1.88589,-0.961645 4.81089,-3.477715 6.5,-5.591267 2.68833,-3.363873 3.0711,-4.61935 3.0711,-10.073269 0,-4.994714 -0.49244,-6.949115 -2.48282,-9.853892 -6.78965,-9.908839 -20.76843,-10.756514 -28.37176,-1.720466 -5.25438,6.244467 -5.64606,14.110188 -1.05643,21.215299 4.56233,7.062876 14.85774,9.838865 22.33991,6.023595 z m 29.64253,9.180125 C 453.23116,91.0883 453,87.366667 453,67.128571 453,50.006349 453.3341,43.065904 454.2,42.2 c 1.89942,-1.899424 4.63309,-1.407181 6.94378,1.250348 l 2.13055,2.450348 3.99044,-2.035771 c 10.36657,-5.288628 26.7985,-2.64689 25.05305,4.027743 -0.71642,2.739578 -3.18873,3.368837 -8.53158,2.171479 -8.06045,-1.806383 -16.18499,1.876829 -19.80888,8.98023 C 462.30056,62.331171 462,64.94459 462,76.237656 c 0,10.434758 -0.33695,13.798399 -1.5567,15.539838 -1.83289,2.616814 -3.6992,2.823751 -5.87187,0.651077 z m 64.49989,0.406349 c -10.53999,-3.027047 -19.04567,-14.360118 -19.06574,-25.403419 -0.01,-5.4078 2.84501,-12.896957 6.57934,-17.259673 9.55363,-11.161273 26.6504,-12.278102 37.52735,-2.451435 6.50649,5.878225 9.19994,11.669058 9.19994,19.779607 0,5.806361 -0.46663,7.808418 -2.73652,11.740907 -6.64728,11.516159 -19.47157,17.049789 -31.50437,13.594013 z m 16.59251,-10.378061 c 10.6084,-6.21694 11.51971,-21.638664 1.72035,-29.113 -8.72716,-6.656528 -21.51056,-3.896937 -26.40682,5.700518 -8.08623,15.850314 9.35882,32.395081 24.68647,23.412482 z M 372.97978,32.962227 c -2.36161,-4.412714 2.09251,-9.16158 6.64671,-7.086547 2.62608,1.196522 3.30652,5.79131 1.17351,7.92432 -1.95095,1.950953 -6.59393,1.453554 -7.82022,-0.837773 z"
       style="fill:#49c46c" />
    <path
       id="path883"
       d="M 0,64 V 0 h 41 c 26.666667,0 41,0.3495935 41,1 0,0.55 -0.45,1 -1,1 -0.625,0 -1,6 -1,16 V 34 H 58.2 c -15.622222,0 -22.140061,0.340061 -23,1.2 -1.554875,1.554875 -1.75145,90.8 -0.2,90.8 0.55,0 1,0.45 1,1 0,0.62963 -6.666667,1 -18,1 H 0 Z m 46,63 c 0,-0.55 0.45,-1 1,-1 0.649573,0 1,-13.66667 1,-39 V 48 h 16 16 v 39 c 0,25.33333 0.350427,39 1,39 0.55,0 1,0.45 1,1 0,0.62963 -6.666667,1 -18,1 -11.333333,0 -18,-0.37037 -18,-1 z m 46,0 c 0,-0.55 0.45,-1 1,-1 0.655914,0 1,-21.33333 1,-62 C 94,23.333333 93.655914,2 93,2 92.45,2 92,1.55 92,1 c 0,-0.62962963 6.666667,-1 18,-1 11.33333,0 18,0.37037037 18,1 0,0.55 -0.45,1 -1,1 -0.65591,0 -1,21.333333 -1,62 0,40.66667 0.34409,62 1,62 0.55,0 1,0.45 1,1 0,0.62963 -6.66667,1 -18,1 -11.333333,0 -18,-0.37037 -18,-1 z m 263.38953,-11.42727 c -1.4179,-3.695 0.0512,-5.93595 4.65914,-7.1069 6.08464,-1.5462 9.45246,-3.89476 11.36518,-7.92552 C 372.7399,97.745869 373,92.78676 373,70.298871 373,50.71086 373.32615,43.073851 374.2,42.2 c 1.8601,-1.860102 4.53058,-1.422741 6.2433,1.022506 1.30495,1.863077 1.5567,6.140768 1.5567,26.450779 0,13.461856 -0.47637,26.449513 -1.072,29.226854 -1.51359,7.057601 -5.95024,12.736361 -12.2376,15.663711 -5.85034,2.72387 -12.45065,3.22451 -13.30087,1.00888 z M 159.67278,92.75 c -1.54499,-1.129724 -1.68365,-3.596991 -1.44113,-25.641689 0.23766,-21.602324 0.46103,-24.513152 1.95325,-25.453821 1.23213,-0.776717 2.38705,-0.686349 4.29787,0.33629 2.12957,1.139708 3.43929,1.177415 7.07945,0.203821 8.36358,-2.236916 14.99676,-1.046468 21.15344,3.796378 2.3818,1.873523 2.7735,1.915023 4.69155,0.497064 12.49852,-9.239743 27.63048,-6.09095 33.69693,7.011957 1.57339,3.398376 1.85524,6.597728 1.8739,21.271439 l 0.022,17.271439 -2.47039,1.125583 c -4.85246,2.210931 -5.52898,0.250405 -5.53519,-16.040906 -0.003,-8.045155 -0.46623,-16.286131 -1.02925,-18.313279 C 221.07733,48.416713 206.34052,46.639471 201.44889,56.09884 200.36199,58.200666 200,62.871819 200,74.795353 c 0,14.128508 -0.2032,16.078569 -1.82874,17.549659 -2.28311,2.06619 -3.59759,2.085804 -5.59983,0.08356 C 191.27399,91.131131 191,88.071243 191,74.878912 c 0,-17.706626 -0.75622,-20.667248 -5.96727,-23.361985 -7.30882,-3.779539 -15.88744,-0.30129 -17.9979,7.297349 -0.56302,2.027148 -1.02619,10.233224 -1.02925,18.235724 -0.006,14.330615 -0.5486,16.95 -3.51445,16.95 -0.60988,0 -1.87813,-0.5625 -2.81835,-1.25 z m 103.32075,0.375625 c -7.40447,-2.429484 -14.80461,-9.035893 -17.5907,-15.703943 -2.04543,-4.895398 -1.76373,-16.030078 0.53356,-21.089743 9.11549,-20.076484 38.02955,-20.40838 47.7463,-0.548066 2.55673,5.225768 2.82002,6.843888 3.1665,19.460152 0.31579,11.498805 0.10891,14.17098 -1.2587,16.258213 -2.0845,3.181349 -3.89833,3.156934 -6.91188,-0.09304 l -2.40232,-2.590799 -4.35873,2.223659 c -4.69401,2.394701 -14.6387,3.489627 -18.92403,2.083565 z M 280.51108,81.55935 c 4.14747,-3.163432 7.43378,-9.432516 7.46696,-14.24425 0.10729,-15.559932 -20.04412,-23.537963 -30.68031,-12.146467 -2.80013,2.998972 -5.30414,8.955158 -5.27577,12.549248 0.0273,3.4533 3.06149,10.219261 5.58904,12.462877 6.52486,5.791889 16.33932,6.382723 22.90008,1.378592 z m 27.06035,10.869221 C 306.23116,91.0883 306,87.366667 306,67.128571 306,50.006349 306.3341,43.065904 307.2,42.2 c 1.77873,-1.778729 4.48144,-1.458307 6.5652,0.778343 1.83638,1.971124 1.8621,1.971124 7.04968,0 9.6467,-3.665458 18.41038,-2.172909 25.88779,4.408966 7.38819,6.503352 8.24977,9.44354 8.27537,28.240246 0.0181,13.273299 -0.24875,16.352226 -1.50765,17.397022 -1.16961,0.970685 -2.11105,1.004549 -4,0.143884 -2.45759,-1.119753 -2.4705,-1.19951 -2.49235,-15.397022 -0.0181,-11.725237 -0.35246,-14.999112 -1.87437,-18.350038 C 339.73586,47.602651 324.7249,46.152796 317.51908,56.757105 315.11234,60.29894 315,61.11295 315,75.009628 c 0,11.546219 -0.32098,15.003623 -1.5567,16.767866 -1.83289,2.616814 -3.6992,2.823751 -5.87187,0.651077 z M 408.18261,92.159089 C 394.95697,87.439836 388.1197,73.131018 392.09909,58.5 c 1.5659,-5.757343 10.89048,-14.677192 17.18568,-16.43974 14.7909,-4.141196 30.57985,4.75556 33.62315,18.94597 C 443.50856,63.806947 444,71.631548 444,78.394234 c 0,10.641971 -0.24597,12.518392 -1.82874,13.950778 -2.49773,2.260413 -3.68802,2.088851 -6.49265,-0.935812 l -2.40232,-2.590799 -4.31575,2.201732 c -6.01309,3.067646 -14.12642,3.512384 -20.77793,1.138956 z m 16.74629,-8.910643 c 1.88589,-0.961645 4.81089,-3.477715 6.5,-5.591267 2.68833,-3.363873 3.0711,-4.61935 3.0711,-10.073269 0,-4.994714 -0.49244,-6.949115 -2.48282,-9.853892 -6.78965,-9.908839 -20.76843,-10.756514 -28.37176,-1.720466 -5.25438,6.244467 -5.64606,14.110188 -1.05643,21.215299 4.56233,7.062876 14.85774,9.838865 22.33991,6.023595 z m 29.64253,9.180125 C 453.23116,91.0883 453,87.366667 453,67.128571 453,50.006349 453.3341,43.065904 454.2,42.2 c 1.89942,-1.899424 4.63309,-1.407181 6.94378,1.250348 l 2.13055,2.450348 3.99044,-2.035771 c 10.36657,-5.288628 26.7985,-2.64689 25.05305,4.027743 -0.71642,2.739578 -3.18873,3.368837 -8.53158,2.171479 -8.06045,-1.806383 -16.18499,1.876829 -19.80888,8.98023 C 462.30056,62.331171 462,64.94459 462,76.237656 c 0,10.434758 -0.33695,13.798399 -1.5567,15.539838 -1.83289,2.616814 -3.6992,2.823751 -5.87187,0.651077 z m 64.49989,0.406349 c -10.53999,-3.027047 -19.04567,-14.360118 -19.06574,-25.403419 -0.01,-5.4078 2.84501,-12.896957 6.57934,-17.259673 9.55363,-11.161273 26.6504,-12.278102 37.52735,-2.451435 6.50649,5.878225 9.19994,11.669058 9.19994,19.779607 0,5.806361 -0.46663,7.808418 -2.73652,11.740907 -6.64728,11.516159 -19.47157,17.049789 -31.50437,13.594013 z m 16.59251,-10.378061 c 10.6084,-6.21694 11.51971,-21.638664 1.72035,-29.113 -8.72716,-6.656528 -21.51056,-3.896937 -26.40682,5.700518 -8.08623,15.850314 9.35882,32.395081 24.68647,23.412482 z M 372.97978,32.962227 c -2.36161,-4.412714 2.09251,-9.16158 6.64671,-7.086547 2.62608,1.196522 3.30652,5.79131 1.17351,7.92432 -1.95095,1.950953 -6.59393,1.453554 -7.82022,-0.837773 z"
       style="fill:#34be5b" />
    <path
       id="path881"
       d="m 355.38953,115.57273 c -1.4179,-3.695 0.0512,-5.93595 4.65914,-7.1069 6.08464,-1.5462 9.45246,-3.89476 11.36518,-7.92552 C 372.7399,97.745869 373,92.78676 373,70.298871 373,50.71086 373.32615,43.073851 374.2,42.2 c 1.8601,-1.860102 4.53058,-1.422741 6.2433,1.022506 1.30495,1.863077 1.5567,6.140768 1.5567,26.450779 0,13.461856 -0.47637,26.449513 -1.072,29.226854 -1.51359,7.057601 -5.95024,12.736361 -12.2376,15.663711 -5.85034,2.72387 -12.45065,3.22451 -13.30087,1.00888 z M 159.67278,92.75 c -1.54499,-1.129724 -1.68365,-3.596991 -1.44113,-25.641689 0.23766,-21.602324 0.46103,-24.513152 1.95325,-25.453821 1.23213,-0.776717 2.38705,-0.686349 4.29787,0.33629 2.12957,1.139708 3.43929,1.177415 7.07945,0.203821 8.36358,-2.236916 14.99676,-1.046468 21.15344,3.796378 2.3818,1.873523 2.7735,1.915023 4.69155,0.497064 12.49852,-9.239743 27.63048,-6.09095 33.69693,7.011957 1.57339,3.398376 1.85524,6.597728 1.8739,21.271439 l 0.022,17.271439 -2.47039,1.125583 c -4.85246,2.210931 -5.52898,0.250405 -5.53519,-16.040906 -0.003,-8.045155 -0.46623,-16.286131 -1.02925,-18.313279 C 221.07733,48.416713 206.34052,46.639471 201.44889,56.09884 200.36199,58.200666 200,62.871819 200,74.795353 c 0,14.128508 -0.2032,16.078569 -1.82874,17.549659 -2.28311,2.06619 -3.59759,2.085804 -5.59983,0.08356 C 191.27399,91.131131 191,88.071243 191,74.878912 c 0,-17.706626 -0.75622,-20.667248 -5.96727,-23.361985 -7.30882,-3.779539 -15.88744,-0.30129 -17.9979,7.297349 -0.56302,2.027148 -1.02619,10.233224 -1.02925,18.235724 -0.006,14.330615 -0.5486,16.95 -3.51445,16.95 -0.60988,0 -1.87813,-0.5625 -2.81835,-1.25 z m 103.32075,0.375625 c -7.40447,-2.429484 -14.80461,-9.035893 -17.5907,-15.703943 -2.04543,-4.895398 -1.76373,-16.030078 0.53356,-21.089743 9.11549,-20.076484 38.02955,-20.40838 47.7463,-0.548066 2.55673,5.225768 2.82002,6.843888 3.1665,19.460152 0.31579,11.498805 0.10891,14.17098 -1.2587,16.258213 -2.0845,3.181349 -3.89833,3.156934 -6.91188,-0.09304 l -2.40232,-2.590799 -4.35873,2.223659 c -4.69401,2.394701 -14.6387,3.489627 -18.92403,2.083565 z M 280.51108,81.55935 c 4.14747,-3.163432 7.43378,-9.432516 7.46696,-14.24425 0.10729,-15.559932 -20.04412,-23.537963 -30.68031,-12.146467 -2.80013,2.998972 -5.30414,8.955158 -5.27577,12.549248 0.0273,3.4533 3.06149,10.219261 5.58904,12.462877 6.52486,5.791889 16.33932,6.382723 22.90008,1.378592 z m 27.06035,10.869221 C 306.23116,91.0883 306,87.366667 306,67.128571 306,50.006349 306.3341,43.065904 307.2,42.2 c 1.77873,-1.778729 4.48144,-1.458307 6.5652,0.778343 1.83638,1.971124 1.8621,1.971124 7.04968,0 9.6467,-3.665458 18.41038,-2.172909 25.88779,4.408966 7.38819,6.503352 8.24977,9.44354 8.27537,28.240246 0.0181,13.273299 -0.24875,16.352226 -1.50765,17.397022 -1.16961,0.970685 -2.11105,1.004549 -4,0.143884 -2.45759,-1.119753 -2.4705,-1.19951 -2.49235,-15.397022 -0.0181,-11.725237 -0.35246,-14.999112 -1.87437,-18.350038 C 339.73586,47.602651 324.7249,46.152796 317.51908,56.757105 315.11234,60.29894 315,61.11295 315,75.009628 c 0,11.546219 -0.32098,15.003623 -1.5567,16.767866 -1.83289,2.616814 -3.6992,2.823751 -5.87187,0.651077 z M 408.18261,92.159089 C 394.95697,87.439836 388.1197,73.131018 392.09909,58.5 c 1.5659,-5.757343 10.89048,-14.677192 17.18568,-16.43974 14.7909,-4.141196 30.57985,4.75556 33.62315,18.94597 C 443.50856,63.806947 444,71.631548 444,78.394234 c 0,10.641971 -0.24597,12.518392 -1.82874,13.950778 -2.49773,2.260413 -3.68802,2.088851 -6.49265,-0.935812 l -2.40232,-2.590799 -4.31575,2.201732 c -6.01309,3.067646 -14.12642,3.512384 -20.77793,1.138956 z m 16.74629,-8.910643 c 1.88589,-0.961645 4.81089,-3.477715 6.5,-5.591267 2.68833,-3.363873 3.0711,-4.61935 3.0711,-10.073269 0,-4.994714 -0.49244,-6.949115 -2.48282,-9.853892 -6.78965,-9.908839 -20.76843,-10.756514 -28.37176,-1.720466 -5.25438,6.244467 -5.64606,14.110188 -1.05643,21.215299 4.56233,7.062876 14.85774,9.838865 22.33991,6.023595 z m 29.64253,9.180125 C 453.23116,91.0883 453,87.366667 453,67.128571 453,50.006349 453.3341,43.065904 454.2,42.2 c 1.89942,-1.899424 4.63309,-1.407181 6.94378,1.250348 l 2.13055,2.450348 3.99044,-2.035771 c 10.36657,-5.288628 26.7985,-2.64689 25.05305,4.027743 -0.71642,2.739578 -3.18873,3.368837 -8.53158,2.171479 -8.06045,-1.806383 -16.18499,1.876829 -19.80888,8.98023 C 462.30056,62.331171 462,64.94459 462,76.237656 c 0,10.434758 -0.33695,13.798399 -1.5567,15.539838 -1.83289,2.616814 -3.6992,2.823751 -5.87187,0.651077 z m 64.49989,0.406349 c -10.53999,-3.027047 -19.04567,-14.360118 -19.06574,-25.403419 -0.01,-5.4078 2.84501,-12.896957 6.57934,-17.259673 9.55363,-11.161273 26.6504,-12.278102 37.52735,-2.451435 6.50649,5.878225 9.19994,11.669058 9.19994,19.779607 0,5.806361 -0.46663,7.808418 -2.73652,11.740907 -6.64728,11.516159 -19.47157,17.049789 -31.50437,13.594013 z m 16.59251,-10.378061 c 10.6084,-6.21694 11.51971,-21.638664 1.72035,-29.113 -8.72716,-6.656528 -21.51056,-3.896937 -26.40682,5.700518 -8.08623,15.850314 9.35882,32.395081 24.68647,23.412482 z M 372.97978,32.962227 c -2.36161,-4.412714 2.09251,-9.16158 6.64671,-7.086547 2.62608,1.196522 3.30652,5.79131 1.17351,7.92432 -1.95095,1.950953 -6.59393,1.453554 -7.82022,-0.837773 z"
       style="fill:#4c4c4c" />
  </g>
</svg>
